<?xml version="1.0" standalone="no"?>
<!DOCTYPE svg PUBLIC "-//W3C//DTD SVG 20010904//EN"
 "http://www.w3.org/TR/2001/REC-SVG-20010904/DTD/svg10.dtd">
<svg version="1.0" xmlns="http://www.w3.org/2000/svg"
 width="260.000000pt" height="260.000000pt" viewBox="0 0 260.000000 260.000000"
 preserveAspectRatio="xMidYMid meet">
<metadata>
Created by potrace 1.14, written by Peter Selinger 2001-2017
</metadata>
<g transform="translate(0.000000,260.000000) scale(0.100000,-0.100000)"
fill="#000000" stroke="none">
<path d="M1170 2594 c-217 -27 -420 -101 -595 -215 -101 -67 -277 -241 -343
-340 -101 -151 -170 -315 -208 -491 -26 -117 -25 -380 0 -498 56 -259 166
-468 343 -651 191 -197 410 -317 683 -376 118 -25 381 -25 500 0 268 57 473
169 666 361 158 159 257 319 322 526 44 140 57 228 56 395 0 356 -129 663
-383 915 -192 190 -395 298 -666 355 -78 16 -305 28 -375 19z m-393 -335 c26
-23 107 -102 179 -175 72 -74 138 -134 147 -134 21 0 84 75 98 117 13 41 21
36 29 -20 l5 -42 20 29 c10 16 26 59 35 95 l17 66 19 -32 c10 -18 34 -60 53
-93 19 -33 39 -60 44 -60 6 0 7 23 3 58 l-6 57 29 -32 c16 -17 37 -57 47 -87
10 -31 22 -56 27 -56 5 0 69 60 141 134 181 185 219 216 263 216 48 0 96 -49
117 -120 43 -144 -3 -431 -89 -562 l-24 -37 69 -69 c68 -68 90 -104 52 -83
-29 16 -143 42 -166 39 -16 -3 -8 -10 35 -31 96 -46 159 -124 206 -254 33 -91
31 -99 -17 -64 -37 27 -127 58 -137 47 -3 -3 7 -20 21 -38 49 -65 70 -127 70
-206 -1 -39 -3 -74 -6 -77 -3 -3 -29 6 -59 19 -84 38 -121 42 -173 16 -51 -24
-103 -94 -141 -188 -13 -31 -37 -140 -54 -241 -37 -218 -52 -253 -126 -290
-45 -24 -61 -26 -191 -28 -138 -3 -143 -2 -195 25 -78 40 -93 74 -129 285 -16
97 -37 198 -46 224 -24 72 -70 147 -114 187 -36 32 -46 36 -94 36 -39 0 -69
-8 -110 -29 -31 -15 -58 -25 -61 -21 -2 4 -7 36 -11 71 -8 83 6 134 56 200 22
29 38 54 36 56 -10 10 -101 -23 -136 -48 -44 -32 -47 -28 -25 44 38 127 120
233 211 273 30 13 54 26 54 29 0 9 -89 -6 -147 -25 -34 -11 -53 -13 -53 -7 0
6 31 41 69 78 l68 67 -28 49 c-35 60 -74 176 -90 267 -17 103 -8 271 19 323
48 93 112 108 189 42z"/>
<path d="M1895 2208 c-52 -41 -103 -187 -120 -348 -15 -139 -54 -216 -123
-246 -22 -10 -24 -13 -7 -13 38 -2 96 20 128 48 17 16 46 35 63 44 73 37 144
130 144 186 0 17 -4 18 -31 11 -18 -6 -40 -5 -56 1 -25 9 -26 12 -19 72 8 84
42 147 89 170 49 23 46 56 -10 85 -28 15 -26 16 -58 -10z"/>
<path d="M640 2200 c-29 -29 -25 -48 17 -67 47 -23 81 -86 89 -170 7 -60 6
-63 -19 -72 -15 -6 -38 -7 -56 -1 -17 5 -33 5 -35 1 -8 -12 43 -114 72 -144
15 -16 45 -38 67 -49 22 -11 55 -33 72 -49 32 -28 90 -50 128 -48 17 0 15 3
-7 13 -74 32 -107 106 -129 286 -17 141 -55 256 -100 301 -25 25 -74 24 -99
-1z"/>
<path d="M975 1431 c-55 -20 -123 -59 -143 -84 -10 -12 3 -10 55 9 84 29 169
31 252 5 68 -21 73 -16 41 37 -34 55 -110 67 -205 33z"/>
<path d="M1485 1441 c-28 -12 -52 -41 -60 -73 l-7 -26 62 19 c84 26 169 24
254 -6 l68 -24 -22 24 c-39 41 -146 87 -214 91 -33 2 -70 0 -81 -5z"/>
<path d="M869 1234 c-26 -5 -26 -6 35 -68 51 -53 92 -86 108 -86 2 0 3 17 3
37 0 29 5 40 24 49 51 26 104 -34 67 -74 -15 -18 -15 -20 -1 -26 9 -3 32 -6
51 -6 32 0 34 2 34 35 0 43 -45 97 -100 119 -40 16 -174 28 -221 20z"/>
<path d="M1583 1229 c-90 -17 -139 -53 -152 -111 -11 -48 -4 -58 39 -58 39 0
59 13 40 25 -14 9 -13 58 2 73 17 17 64 15 83 -5 11 -11 15 -25 11 -45 l-6
-28 33 16 c17 9 57 43 88 74 l55 58 -35 6 c-47 8 -105 6 -158 -5z"/>
<path d="M1100 983 c0 -4 12 -17 27 -28 25 -21 26 -27 32 -141 6 -115 7 -118
20 -79 7 22 15 81 18 131 5 76 3 93 -11 107 -17 16 -86 24 -86 10z"/>
<path d="M1435 977 c-16 -12 -17 -25 -13 -113 3 -57 12 -114 21 -134 15 -35
15 -34 16 70 1 126 5 144 37 160 13 8 24 17 24 22 0 13 -65 9 -85 -5z"/>
<path d="M1212 391 c-48 -12 -82 -48 -82 -86 0 -34 15 -55 40 -55 13 0 15 7
12 30 -4 25 -1 30 16 30 52 0 64 -22 36 -65 -14 -22 -14 -24 5 -34 28 -15 124
-14 145 2 18 13 18 15 1 40 -21 32 -7 57 31 57 24 0 28 -8 25 -42 -3 -21 19
-24 37 -6 13 13 16 56 6 83 -12 30 -65 48 -154 51 -47 2 -100 -1 -118 -5z"/>
</g>
</svg>
